<svg width="16" height="16" viewBox="0 0 16 16" fill="none" xmlns="http://www.w3.org/2000/svg">
<path fill-rule="evenodd" clip-rule="evenodd" d="M3.43442 3.4344C3.58445 3.28442 3.78789 3.20017 4.00002 3.20017C4.21216 3.20017 4.4156 3.28442 4.56562 3.4344L8.00002 6.8688L11.4344 3.4344C11.5082 3.35799 11.5965 3.29705 11.6941 3.25512C11.7917 3.21319 11.8967 3.19112 12.0029 3.1902C12.1091 3.18928 12.2145 3.20952 12.3128 3.24974C12.4111 3.28997 12.5004 3.34937 12.5755 3.42448C12.6507 3.4996 12.7101 3.58892 12.7503 3.68724C12.7905 3.78555 12.8107 3.8909 12.8098 3.99712C12.8089 4.10335 12.7868 4.20832 12.7449 4.30592C12.703 4.40353 12.642 4.4918 12.5656 4.5656L9.13122 8L12.5656 11.4344C12.7114 11.5853 12.792 11.7874 12.7902 11.9971C12.7883 12.2069 12.7042 12.4075 12.5559 12.5559C12.4076 12.7042 12.2069 12.7883 11.9971 12.7901C11.7874 12.792 11.5853 12.7113 11.4344 12.5656L8.00002 9.1312L4.56562 12.5656C4.41474 12.7113 4.21266 12.792 4.0029 12.7901C3.79315 12.7883 3.5925 12.7042 3.44417 12.5559C3.29584 12.4075 3.21171 12.2069 3.20989 11.9971C3.20806 11.7874 3.2887 11.5853 3.43442 11.4344L6.86883 8L3.43442 4.5656C3.28445 4.41558 3.2002 4.21213 3.2002 4C3.2002 3.78787 3.28445 3.58442 3.43442 3.4344Z" fill="#111827"/>
</svg>
